<svg xmlns="http://www.w3.org/2000/svg" width="621" height="673" viewBox="0 0 621 673" fill="none">
    <path d="M607.08 523.747L603.346 516.278C592.892 491.638 464.466 454.305 454.012 453.559L445.799 454.304C430.116 457.288 412.944 471.476 379.345 500.596C372.626 506.57 363.663 508.065 355.449 503.58C311.397 478.94 257.637 429.659 230.756 399.794C201.636 367.69 166.543 314.674 150.116 272.111C147.132 263.897 150.116 254.939 156.09 248.966C194.169 214.616 210.595 198.195 212.09 180.272C212.835 169.819 190.439 37.6591 167.287 24.9658L160.568 20.4866C145.636 10.7783 123.235 -3.40944 98.5951 1.81989C92.6211 3.31469 86.6473 5.5543 81.4231 8.5387C65.0018 19.0023 23.9338 47.3774 5.26714 83.96C-5.93073 107.105 -11.1595 316.92 145.64 493.88C300.947 669.347 492.84 676.813 521.214 670.84H521.959L524.198 670.095C563.026 655.907 595.881 619.325 608.573 603.642C631.718 576.017 616.042 542.413 607.078 523.746L607.08 523.747Z" fill="white"/>
</svg>
