<svg style="display: none;" aria-hidden="true" xmlns="http://www.w3.org/2000/svg" xmlns:xlink="http://www.w3.org/1999/xlink"><symbol fill="none" viewBox="0 0 621 673" id="svg-phone" xmlns="http://www.w3.org/2000/svg"><path d="m607.08 523.747-3.734-7.469c-10.454-24.64-138.88-61.973-149.334-62.719l-8.213.745c-15.683 2.984-32.855 17.172-66.454 46.292-6.719 5.974-15.682 7.469-23.896 2.984-44.052-24.64-97.812-73.921-124.693-103.786-29.12-32.104-64.213-85.12-80.64-127.683-2.984-8.214 0-17.172 5.974-23.145 38.079-34.35 54.505-50.771 56-68.694.745-10.453-21.651-142.613-44.803-155.306l-6.719-4.48C145.636 10.779 123.235-3.408 98.595 1.82c-5.974 1.495-11.948 3.734-17.172 6.719C65.002 19.002 23.933 47.377 5.267 83.96-5.93 107.105-11.16 316.92 145.64 493.88c155.307 175.467 347.2 182.933 375.574 176.96h.745l2.239-.745c38.828-14.188 71.683-50.77 84.375-66.453 23.145-27.625 7.469-61.229-1.495-79.896l.002.001Z" fill="#fff"/></symbol></svg>