<svg xmlns="http://www.w3.org/2000/svg" width="586" height="586" viewBox="0 0 586 586" fill="none"> <path d="M443.267 160.69L454.29 163.784C455.268 164.058 455.837 165.072 455.562 166.05C455.288 167.028 454.274 167.597 453.296 167.322L438.202 163.094L428.996 167.436L457.593 175.562C465.608 165.716 482.05 162.976 498.495 160.233C502.942 159.49 507.386 158.755 511.615 157.881L472.688 146.825L443.264 160.71L443.27 160.704L443.267 160.69ZM440.938 141.22C441.236 140.252 442.26 139.702 443.228 140C444.195 140.298 444.745 141.321 444.447 142.289L440.386 155.562L470.101 141.537L481.556 102.361C477.838 105.409 474.088 108.8 470.36 112.191C458.257 123.175 446.263 134.061 433.607 134.27L425.301 162.681L435.903 157.681L440.936 141.226L440.938 141.22ZM485.209 92.2988C486.553 91.3931 488.381 91.7528 489.28 93.1033C489.797 93.8783 489.898 94.807 489.633 95.6278L476.164 141.687L523.646 155.173C525.209 155.618 526.115 157.236 525.686 158.79C525.412 159.767 524.669 160.493 523.763 160.791C516.435 163.181 507.949 164.597 499.464 166.01C483.345 168.698 467.234 171.376 461.216 180.536C460.513 181.605 459.202 182.099 457.966 181.756L420.922 171.233L294.832 230.732L296.245 233.96C296.892 235.444 296.212 237.177 294.727 237.818C294.407 237.959 294.08 238.031 293.749 238.054L273.363 240.624C271.761 240.82 270.293 239.679 270.097 238.07C269.979 237.141 270.316 236.258 270.934 235.64L270.927 235.634L286.015 220.546C287.163 219.398 289.024 219.398 290.181 220.546C290.502 220.867 290.744 221.249 290.878 221.655L292.487 225.343L418.234 166.007L428.705 130.223C429.15 128.67 430.785 127.77 432.338 128.222C432.478 128.261 432.612 128.307 432.737 128.369C443.45 128.689 454.888 118.313 466.435 107.836C472.622 102.225 478.842 96.5775 485.242 92.2971H485.219L485.209 92.2988ZM325.683 352.968C312.063 357.952 297.351 360.673 282.008 360.673C267.054 360.673 252.652 358.21 239.369 353.344C236.141 352.164 232.884 350.898 229.758 349.492C215.648 343.125 202.904 334.257 192.09 323.443C189.536 320.84 186.894 317.972 184.549 315.183C166.018 293.093 154.867 264.614 154.867 233.519C154.867 163.3 211.786 106.382 282.004 106.382C300.068 106.382 317.265 110.155 332.853 116.97C349.027 124.033 363.452 134.377 375.287 147.153C376.382 148.34 376.31 150.191 375.123 151.293C373.936 152.388 372.085 152.316 370.983 151.129C359.701 138.955 345.941 129.096 330.509 122.346C315.672 115.861 299.263 112.268 282.004 112.268C215.043 112.268 160.752 166.555 160.752 233.519C160.752 300.481 215.039 354.771 282.004 354.771C315.493 354.771 345.8 341.2 367.736 319.258C369.315 317.678 370.839 316.063 372.324 314.405V314.428C372.51 314.107 372.769 313.826 373.066 313.601C391.856 292.24 403.255 264.219 403.255 233.545C403.255 231.335 403.2 229.232 403.098 227.241C402.99 225.138 402.823 223.045 402.614 220.975C402.451 219.366 403.621 217.921 405.23 217.757C406.839 217.594 408.284 218.765 408.448 220.373C408.893 224.742 409.135 229.147 409.135 233.545C409.135 264.353 398.173 292.606 379.943 314.607C365.629 331.883 346.745 345.268 325.679 352.979L325.683 352.968ZM365.506 225.513C365.349 223.905 366.536 222.466 368.148 222.319C369.757 222.162 371.196 223.349 371.343 224.961C371.484 226.406 371.579 227.829 371.647 229.235C371.719 230.775 371.755 232.204 371.755 233.532C371.755 283.106 331.572 323.29 281.997 323.29C232.422 323.29 192.238 283.107 192.238 233.532C192.238 183.957 232.421 143.773 281.997 143.773C306.241 143.773 329.314 153.508 346.244 170.853C347.375 172.017 347.346 173.868 346.182 175.003C345.018 176.134 343.167 176.105 342.032 174.941C334.272 166.988 324.936 160.572 314.554 156.19C304.56 151.979 293.56 149.66 282.003 149.66C235.679 149.66 198.13 187.21 198.13 233.533C198.13 279.857 235.68 317.407 282.003 317.407C328.327 317.407 365.877 279.857 365.877 233.533C365.877 232.072 365.844 230.728 365.791 229.518C365.729 228.151 365.628 226.813 365.51 225.518L365.506 225.513ZM334.614 229.935C334.506 228.316 335.732 226.919 337.348 226.808C338.966 226.7 340.363 227.927 340.474 229.542C340.513 230.105 340.536 230.768 340.569 231.543C340.601 232.403 340.614 233.067 340.614 233.535C340.614 265.905 314.362 292.157 281.992 292.157C249.621 292.157 223.369 265.905 223.369 233.535C223.369 201.164 249.621 174.912 281.992 174.912C296.861 174.912 311.066 180.507 321.943 190.641C323.13 191.743 323.192 193.611 322.09 194.791C320.988 195.978 319.121 196.04 317.94 194.938C313.143 190.461 307.509 186.874 301.305 184.428C295.328 182.077 288.81 180.788 281.992 180.788C252.866 180.788 229.259 204.391 229.259 233.522C229.259 262.648 252.862 286.255 281.992 286.255C311.119 286.255 334.726 262.652 334.726 233.522C334.726 232.717 334.719 232.115 334.703 231.71C334.686 231.21 334.647 230.614 334.608 229.911L334.615 229.928L334.614 229.935ZM323.613 384.965C323.646 383.346 324.98 382.058 326.605 382.091C328.224 382.123 329.512 383.457 329.479 385.083C329.12 401.076 327.207 411.852 320.729 418.866C314.211 425.929 303.525 428.774 285.732 428.774H104.348C85.2605 428.774 74.3517 425.507 68.0238 417.28C61.8106 409.21 60.532 396.832 60.532 378.33H60.5385L60.5156 236.995L60.375 184.491C60.2344 180.936 60.2344 177.614 60.3521 174.497L60.2671 144.281C60.2671 143.392 60.2508 142.469 60.2442 141.564C60.1592 133.179 60.0709 125.563 65.339 118.287C65.3782 118.231 65.4175 118.185 65.4567 118.14L121.094 51.0243C121.156 50.9523 121.218 50.8837 121.28 50.8215C123.429 48.369 125.852 45.9131 128.805 43.9544C131.931 41.8746 135.594 40.3769 140.048 40.0401C140.205 40.0335 140.362 40.0335 140.509 40.0401L202.814 40.5698V40.5633H285.743C304.942 40.5633 315.779 44.9452 321.95 54.2681C327.944 63.3227 329.075 76.6785 329.075 95.0923C329.075 96.7175 327.754 98.0386 326.129 98.0386C324.503 98.0386 323.182 96.7175 323.182 95.0923C323.182 77.7542 322.205 65.3084 317.041 57.5087C312.058 49.9842 302.705 46.4459 285.727 46.4459H202.798V46.4393C199.43 46.4622 196.049 46.3543 192.67 46.3543C175.607 46.2072 162.69 47.3386 154.22 51.5341C146.359 55.432 142.343 62.2931 142.343 73.8331V90.576C142.343 107.734 141.045 119.212 134.779 126.72C128.452 134.307 117.559 137.315 98.5174 137.315C88.7597 137.315 80.3196 139.418 74.6229 146.059C69.77 151.717 66.7093 160.732 66.1861 174.594L66.209 184.3V184.496L66.3497 237.017L66.3725 378.352H66.3791C66.3791 395.604 67.4484 406.981 72.6381 413.714C77.7002 420.294 87.2328 422.909 104.322 422.909H285.706C301.733 422.909 311.115 420.62 316.373 414.917C321.677 409.175 323.263 399.542 323.584 384.993L323.613 384.965ZM66.1161 144.286L66.1226 148.273C67.3195 145.99 68.67 143.982 70.1709 142.233C77.2115 134.022 87.1658 131.419 98.5258 131.419C115.661 131.419 125.21 129.012 130.279 122.943C135.403 116.801 136.466 106.38 136.466 90.5652V73.8224C136.466 59.7182 141.59 51.2329 151.632 46.2552C151.805 46.1702 151.985 46.0819 152.162 45.9969L140.449 45.8955C134.072 46.3893 129.72 50.0747 125.681 54.6855C125.658 54.7182 125.635 54.7477 125.609 54.7706L70.0332 121.817C65.9456 127.52 66.0175 134.194 66.0961 141.523C66.1026 142.422 66.1124 143.334 66.1189 144.289L66.1161 144.286Z" fill="#0C3051"/> </svg>