<svg xmlns="http://www.w3.org/2000/svg" width="451" height="413" viewBox="0 0 451 413" fill="none"> <path d="M78.1768 217.4C78.2951 219.082 77.0288 220.54 75.3466 220.659C73.6645 220.777 72.2063 219.511 72.0879 217.829C72.0527 217.355 72.0271 216.786 72.0112 216.121C71.6882 202.903 78.762 190.368 91.6209 179.239C90.7127 176.866 89.9164 174.515 89.2417 172.187C85.1195 158.005 85.3402 144.672 90.62 133.102C94.8221 123.902 101.867 116.584 111.199 111.148C120.671 105.629 132.494 102.059 146.057 100.442C155.638 99.2969 166.108 99.121 177.247 99.9141C188.248 100.698 199.94 102.434 212.108 105.127C213.748 105.488 214.787 107.116 214.423 108.756C214.061 110.397 212.434 111.436 210.793 111.072C198.983 108.459 187.585 106.767 176.815 106.003C166.07 105.239 155.984 105.408 146.77 106.508C134.02 108.034 122.99 111.337 114.253 116.428C106.012 121.232 99.8109 127.634 96.1587 135.635C91.5153 145.808 91.3746 157.704 95.0906 170.496C95.5447 172.053 96.0532 173.624 96.6193 175.207C102.913 170.451 110.294 165.987 118.628 161.878C147.406 147.682 187.729 137.557 233.578 134.222C240.617 133.71 247.883 133.359 255.359 133.173C278.336 132.61 300.482 133.784 321.058 136.419C342.474 139.163 362.186 143.483 379.379 149.07C400.303 155.872 417.588 164.583 429.788 174.654C441.892 184.647 449.062 196.023 449.954 208.29C449.989 208.763 450.015 209.332 450.031 209.997C450.463 227.606 437.764 244.004 415.752 257.477C419.052 270.598 418.531 282.93 413.603 293.726C407.962 306.083 397.204 315.03 382.695 320.588C367.994 326.22 349.391 328.356 328.381 327.01C311.304 325.916 292.595 322.514 273.069 316.808C254.268 311.318 234.742 303.706 215.218 293.985C205.65 289.22 196.427 284.115 187.613 278.746C178.633 273.275 170.101 267.535 162.078 261.599C160.725 260.598 160.444 258.689 161.445 257.336C162.446 255.984 164.355 255.702 165.708 256.703C173.559 262.511 181.937 268.146 190.789 273.54C199.386 278.778 208.455 283.792 217.94 288.516C237.192 298.104 256.37 305.584 274.764 310.959C293.837 316.53 312.103 319.853 328.762 320.921C348.9 322.213 366.629 320.202 380.521 314.88C393.536 309.895 403.127 301.999 408.062 291.193C412.178 282.181 412.757 271.816 410.249 260.675C408.049 261.893 405.769 263.083 403.412 264.244C374.634 278.44 334.311 288.564 288.462 291.899C281.423 292.411 274.157 292.763 266.681 292.948C264.999 292.987 263.605 291.656 263.566 289.974C263.528 288.292 264.858 286.898 266.54 286.859C273.726 286.683 280.902 286.332 288.037 285.81C333.096 282.533 372.614 272.635 400.72 258.775C403.464 257.423 406.095 256.031 408.612 254.608C406.693 248.523 403.914 242.245 400.348 235.865C388.295 214.294 367.291 191.646 339.852 171.129C338.5 170.121 338.221 168.206 339.232 166.853C340.239 165.5 342.155 165.222 343.508 166.233C371.614 187.25 393.201 210.575 405.676 232.904C409.175 239.166 411.96 245.36 413.982 251.414C433.249 239.306 444.315 225.062 443.947 210.141C443.937 209.763 443.912 209.29 443.87 208.721C443.106 198.219 436.726 188.276 425.926 179.361C414.331 169.786 397.721 161.449 377.5 154.874C360.621 149.386 341.29 145.149 320.302 142.46C300.021 139.863 278.185 138.705 255.508 139.262C248.322 139.438 241.145 139.789 234.011 140.311C188.952 143.589 149.433 153.486 121.328 167.346C112.716 171.593 105.198 176.197 98.952 181.075C103.516 191.542 110.385 202.418 119.253 213.301C120.314 214.605 120.116 216.524 118.811 217.586C117.507 218.648 115.588 218.449 114.526 217.144C105.779 206.409 98.8821 195.626 94.1043 185.149C83.5826 194.698 77.8396 205.162 78.1049 215.98C78.1145 216.358 78.1401 216.831 78.1816 217.4L78.1768 217.4ZM212.931 0.000537156H330.141C332.875 0.000537156 335.36 1.11664 337.157 2.91388C338.954 4.71112 340.071 7.19596 340.071 9.93018V84.2152C340.071 86.9495 338.954 89.4343 337.157 91.2316C335.36 93.0288 332.875 94.1449 330.141 94.1449H288.654C287.662 94.1449 286.76 94.5127 286.082 95.1235C285.405 95.7342 284.947 96.5945 284.845 97.5731L282.987 115.68C282.837 117.148 282.43 118.366 281.829 119.341C280.918 120.822 279.619 121.702 278.078 122.047C276.744 122.344 275.305 122.194 273.87 121.65C272.277 121.046 270.62 119.93 269.114 118.401L247.512 96.5205C244.944 93.9173 242.875 93.9781 239.424 94.0804C238.366 94.1124 237.221 94.1444 236.517 94.1444H212.926C210.192 94.1444 207.707 93.0283 205.91 91.231C204.113 89.4338 202.997 86.9489 202.997 84.2147V9.92964C202.997 7.19543 204.113 4.71058 205.91 2.91334C207.707 1.1161 210.192 0 212.926 0L212.931 0.000537156ZM267.284 6.11179H212.931C211.885 6.11179 210.929 6.54351 210.238 7.23428C209.544 7.92824 209.116 8.88121 209.116 9.92699V84.2121C209.116 85.2577 209.547 86.214 210.238 86.9048C210.932 87.5987 211.885 88.0273 212.931 88.0273H236.522C237.871 88.0273 238.594 88.0049 239.263 87.9857C244.37 87.8354 247.424 87.7458 251.863 92.2421L273.465 114.123C274.348 115.015 275.234 115.639 276.024 115.939C276.302 116.045 276.523 116.102 276.673 116.106C276.788 115.898 276.877 115.552 276.929 115.057L278.787 96.9501C279.049 94.4077 280.239 92.1788 282.004 90.5862C283.772 88.9905 286.107 88.031 288.656 88.031H330.143C331.188 88.031 332.145 87.5993 332.836 86.9086C333.529 86.2146 333.958 85.2616 333.958 84.2159V9.93079C333.958 8.88509 333.526 7.92888 332.836 7.23808C332.142 6.54412 331.189 6.11559 330.143 6.11559H267.284L267.284 6.11179ZM374.858 160.932C372.945 160.139 371.023 159.378 369.089 158.642L366.924 164.357C368.801 165.07 370.665 165.809 372.517 166.576L374.855 160.929L374.858 160.932ZM430.719 209.18L430.646 208.969L430.435 208.38L430.326 208.089L430.102 207.507L429.987 207.216L429.75 206.634L429.629 206.343L429.507 206.055L429.383 205.767L429.127 205.192L428.865 204.616L428.73 204.331L428.455 203.762L428.315 203.478L428.177 203.203L422.718 205.956L422.964 206.449L423.086 206.698L423.207 206.951L423.326 207.203L423.556 207.709L423.78 208.214L423.997 208.719L424.208 209.224L424.311 209.477L424.41 209.733L424.509 209.985L424.701 210.497L424.886 211.009L424.96 211.22L430.723 209.18H430.719ZM416.876 187.686L416.585 187.389L416.089 186.887L415.587 186.388L415.331 186.138L414.819 185.643L414.301 185.15L413.773 184.658C413.281 184.203 412.785 183.753 412.286 183.311L408.241 187.894C409.706 189.192 411.135 190.545 412.498 191.949L416.879 187.686L416.876 187.686ZM397.09 172.163C395.315 171.069 393.514 170.024 391.695 169.013L388.737 174.36C390.48 175.329 392.2 176.33 393.898 177.373L397.093 172.163L397.09 172.163ZM147.803 288.98C146.114 288.98 144.746 287.611 144.746 285.923C144.746 284.234 146.114 282.866 147.803 282.866H172.59C175.442 282.866 178.036 284.03 179.91 285.907C181.787 287.784 182.951 290.374 182.951 293.23V372.191C182.951 375.043 181.787 377.637 179.91 379.511C178.033 381.388 175.442 382.552 172.59 382.552H128.493C127.39 382.552 126.386 382.961 125.634 383.642C124.88 384.324 124.371 385.28 124.259 386.37L122.286 405.616C122.129 407.147 121.707 408.414 121.084 409.428C120.144 410.953 118.807 411.861 117.217 412.216C115.836 412.526 114.346 412.37 112.852 411.804C111.183 411.17 109.45 410 107.867 408.398L84.9052 385.142C82.1166 382.315 79.8876 382.383 76.1683 382.491C75.0554 382.523 73.8498 382.558 73.0855 382.558H48.0069C45.1543 382.558 42.5609 381.394 40.6868 379.517C38.8096 377.64 37.6456 375.05 37.6456 372.197V334.87C37.6456 333.182 39.0144 331.813 40.7029 331.813C42.3914 331.813 43.7601 333.182 43.7601 334.87V372.197C43.7601 373.364 44.2398 374.426 45.0105 375.197C45.7812 375.968 46.8461 376.447 48.0102 376.447H73.0887C74.5023 376.447 75.2825 376.425 76.0053 376.402C81.381 376.246 84.5981 376.15 89.258 380.87L112.219 404.125C113.176 405.094 114.145 405.772 115.008 406.098C115.411 406.252 115.724 406.313 115.91 406.271C115.929 406.268 115.887 406.262 115.907 406.23C116.054 405.99 116.166 405.584 116.226 404.995L118.2 385.75C118.471 383.095 119.715 380.771 121.558 379.108C123.403 377.441 125.84 376.444 128.5 376.444H172.597C173.764 376.444 174.826 375.964 175.596 375.193C176.367 374.423 176.847 373.358 176.847 372.194V293.233C176.847 292.066 176.367 291.004 175.596 290.233C174.826 289.463 173.761 288.983 172.597 288.983H147.81L147.803 288.98ZM86.1941 122.961C85.756 123.917 84.6271 124.339 83.6709 123.901C82.7147 123.463 82.2926 122.334 82.7308 121.378C86.8273 112.401 93.7191 105.257 102.842 99.9382C112.177 94.4985 123.853 90.981 137.262 89.3789C138.308 89.2542 139.258 90.0025 139.382 91.0514C139.507 92.0971 138.759 93.047 137.71 93.1716C124.809 94.7131 113.629 98.0677 104.755 103.239C96.3092 108.161 89.9481 114.736 86.1936 122.961L86.1941 122.961ZM322.513 337.904C323.565 337.971 324.362 338.876 324.298 339.925C324.231 340.977 323.326 341.774 322.277 341.71C305.279 340.619 286.651 337.233 267.211 331.553C248.487 326.085 229.024 318.496 209.551 308.8C208.608 308.33 208.224 307.185 208.694 306.241C209.164 305.298 210.309 304.914 211.253 305.384C230.555 314.997 249.798 322.503 268.269 327.898C287.428 333.494 305.775 336.83 322.513 337.905V337.904ZM127.144 235.791H9.93439C8.8887 235.791 7.93248 236.222 7.24168 236.913C6.54772 237.607 6.11919 238.56 6.11919 239.606V313.891C6.11919 314.937 6.55092 315.893 7.24168 316.584C7.93564 317.278 8.88861 317.706 9.93439 317.706H51.4216C53.9704 317.706 56.3082 318.666 58.0734 320.261C59.8386 321.854 61.0315 324.083 61.2905 326.625L63.1485 344.732C63.1997 345.231 63.286 345.573 63.4044 345.781C63.5547 345.778 63.7753 345.72 64.0536 345.614C64.8434 345.317 65.7325 344.693 66.6119 343.801L88.2143 321.92C92.6531 317.424 95.7071 317.514 100.815 317.664C101.483 317.683 102.206 317.706 103.555 317.706H127.146C128.192 317.706 129.148 317.274 129.839 316.583C130.533 315.889 130.961 314.936 130.961 313.89V239.605C130.961 238.56 130.53 237.603 129.839 236.913C129.145 236.219 128.192 235.79 127.146 235.79L127.144 235.791ZM9.93439 229.679H127.144C129.879 229.679 132.363 230.795 134.161 232.593C135.958 234.39 137.074 236.875 137.074 239.609V313.894C137.074 316.628 135.958 319.113 134.161 320.91C132.363 322.708 129.879 323.824 127.144 323.824H103.553C102.853 323.824 101.705 323.789 100.646 323.76C97.1958 323.657 95.1299 323.597 92.5587 326.2L70.9563 348.081C69.4501 349.609 67.7935 350.725 66.201 351.327C64.7651 351.87 63.326 352.02 61.9925 351.723C60.4511 351.378 59.1526 350.498 58.2413 349.018C57.6401 348.042 57.2339 346.824 57.0836 345.356L55.2256 327.249C55.1265 326.271 54.666 325.414 53.988 324.8C53.3101 324.189 52.4082 323.821 51.4169 323.821H9.92964C7.19543 323.821 4.71058 322.705 2.91334 320.908C1.1161 319.11 0 316.626 0 313.891V239.606C0 236.872 1.1161 234.387 2.91334 232.59C4.71058 230.793 7.19543 229.677 9.92964 229.677L9.93439 229.679Z" fill="#0C3051"/> </svg>