<svg xmlns="http://www.w3.org/2000/svg" width="152" height="152" viewBox="0 0 152 152" fill="none"> <path d="M117.253 52.6311H113.096V27.7421C113.096 27.4809 113.001 27.2434 112.811 27.0771L89.0843 3.34994C88.8943 3.15994 88.6568 3.06494 88.4193 3.06494H37.5948C30.9212 3.06494 25.506 8.50372 25.506 15.1537V106.638C25.506 113.312 30.9212 118.727 37.5948 118.727H112.146C112.669 118.727 113.096 118.299 113.096 117.777V93.3136H117.253C122.478 93.3136 126.729 89.0624 126.729 83.8373V62.1057C126.729 56.8808 122.478 52.6293 117.253 52.6293V52.6311ZM89.3695 6.31883L109.842 26.7913H89.3695V6.31883ZM37.594 116.851C31.9652 116.851 27.4052 112.267 27.4052 106.662V15.1778C27.4052 9.54904 31.9888 4.98904 37.594 4.98904H87.5629C87.4916 5.1078 87.4679 5.25029 87.4679 5.3928V27.765C87.4679 28.2875 87.8954 28.715 88.4179 28.715H110.125C110.577 28.715 110.933 28.4063 111.052 28.0025L111.194 28.145V52.6322H47.6625H47.4013H47.1875C47.1163 52.6322 47.0213 52.6322 46.95 52.656C46.8788 52.656 46.7838 52.656 46.7125 52.6797C46.6412 52.6797 46.57 52.7035 46.4987 52.7035C46.4037 52.7035 46.3325 52.7272 46.2375 52.7272C46.1662 52.7272 46.1187 52.751 46.0475 52.751C45.9525 52.7747 45.8575 52.7747 45.7863 52.7985C45.715 52.8222 45.6675 52.8222 45.5963 52.846L45.3113 52.9172C45.2638 52.941 45.1925 52.941 45.145 52.9647L44.86 53.036C44.7888 53.0597 44.7412 53.0835 44.6938 53.0835C44.5988 53.1072 44.5275 53.131 44.4325 53.1785C44.3613 53.2022 44.29 53.226 44.2425 53.2497C44.1713 53.2735 44.1 53.2972 44.005 53.3447C43.9337 53.3685 43.8387 53.416 43.7675 53.4635C43.72 53.4872 43.6487 53.511 43.6012 53.5347C43.4825 53.5822 43.3875 53.6535 43.2687 53.701C43.245 53.7247 43.2212 53.7247 43.1975 53.7485C41.5587 54.6272 40.1812 55.9809 39.3024 57.6436L39.2311 57.7861C39.1836 57.8811 39.1361 57.9523 39.0886 58.0473C39.0411 58.1186 39.0174 58.1898 38.9936 58.2849C38.9699 58.3561 38.9461 58.4036 38.9224 58.4749C38.8749 58.5699 38.8511 58.6649 38.8036 58.7599C38.7799 58.8074 38.7561 58.8549 38.7561 58.9024C38.7086 58.9974 38.6849 59.1161 38.6374 59.2348C38.6136 59.2823 38.6136 59.3061 38.5899 59.3536C38.5661 59.4723 38.5186 59.5673 38.4949 59.6861C38.4949 59.7336 38.4711 59.7573 38.4711 59.8048C38.4474 59.9236 38.4236 60.0186 38.3999 60.1373C38.3999 60.1848 38.3761 60.2086 38.3761 60.2561C38.3524 60.3748 38.3286 60.4698 38.3049 60.5886C38.3049 60.6361 38.2811 60.6836 38.2811 60.7311C38.2574 60.8498 38.2574 60.9448 38.2336 61.0636C38.2336 61.1111 38.2099 61.1586 38.2099 61.2061C38.2099 61.3248 38.1861 61.4436 38.1861 61.5385V61.681C38.1861 61.8473 38.1861 61.9898 38.1624 62.156V62.1798V83.8398C38.1624 89.0647 42.4136 93.3161 47.6387 93.3161H111.17V116.852L37.594 116.851ZM124.827 83.8388C124.827 88.0188 121.43 91.4152 117.25 91.4152H47.6626C43.4826 91.4152 40.0863 88.0188 40.0863 83.8388V62.1072V62.0834V61.7034V61.5847C40.0863 61.4897 40.0863 61.4184 40.1101 61.3234C40.1101 61.2759 40.1338 61.2284 40.1338 61.1809C40.1338 61.1097 40.1576 61.0384 40.1576 60.9434C40.1576 60.8959 40.1813 60.8484 40.1813 60.8009C40.2051 60.7297 40.2051 60.6584 40.2288 60.5872C40.2288 60.5397 40.2526 60.4684 40.2763 60.4209C40.3001 60.3497 40.3001 60.2784 40.3238 60.2309C40.3476 60.1597 40.3476 60.1122 40.3713 60.0647C40.3951 60.0172 40.3951 59.9459 40.4188 59.8984L40.4901 59.6847C40.5138 59.6372 40.5138 59.5897 40.5376 59.5422C40.5613 59.4472 40.6088 59.3759 40.6326 59.2809C40.6326 59.2572 40.6563 59.2334 40.6563 59.1859C40.7038 59.0672 40.7513 58.9722 40.7988 58.8534C41.1788 58.0697 41.6776 57.3572 42.2951 56.7397C43.0076 56.0272 43.8388 55.4572 44.7414 55.1009H44.7651C44.8601 55.0534 44.9789 55.0297 45.0739 54.9822C45.0977 54.9822 45.1214 54.9584 45.1689 54.9584C45.2639 54.9347 45.3352 54.8872 45.4301 54.8634C45.4776 54.8397 45.5014 54.8397 45.5489 54.8397C45.6202 54.8159 45.7151 54.7922 45.7864 54.7684C45.8339 54.7447 45.8814 54.7447 45.9289 54.7447C46.0002 54.7209 46.0714 54.7209 46.1427 54.6972C46.1902 54.6972 46.2377 54.6734 46.2852 54.6734C46.3564 54.6497 46.4277 54.6497 46.4989 54.6259C46.5464 54.6259 46.5939 54.6022 46.6652 54.6022C46.7364 54.6022 46.8077 54.5784 46.8789 54.5784H47.0214C47.0927 54.5784 47.1639 54.5547 47.2589 54.5547H47.3539H47.6152H117.203C121.383 54.5547 124.779 57.951 124.779 62.131L124.827 83.8388Z" fill="white"/> <path d="M66.6433 64.5522C66.0971 64.4097 65.2421 64.3384 63.9121 64.3384H57.8084V73.4348H63.9597C65.9309 73.4348 67.356 73.0548 68.2584 72.2473C69.1847 71.416 69.6597 70.276 69.6597 68.8273C69.6597 67.7823 69.3984 66.8797 68.8522 66.1197C68.2822 65.3359 67.5459 64.8135 66.6434 64.5522L66.6433 64.5522ZM66.9996 70.8222C66.6196 71.1547 65.8121 71.5347 63.9596 71.5347H59.7084V66.2383H63.912C65.3845 66.2383 65.9545 66.3333 66.1445 66.3808C66.6195 66.5233 66.9995 66.7846 67.3082 67.2121C67.617 67.6396 67.7595 68.1621 67.7595 68.8271C67.7595 69.7058 67.4982 70.3708 66.9995 70.8221L66.9996 70.8222Z" fill="white"/> <path d="M69.7767 63.2711C68.993 62.7248 68.043 62.3686 66.9267 62.1786C66.1667 62.0361 65.0742 61.9648 63.6967 61.9648H55.1704V83.9571H59.7304V75.7871H63.9341C67.0692 75.7871 69.2304 75.0983 70.5365 73.6971C71.7715 72.3433 72.4127 70.6571 72.4127 68.7095C72.4127 67.5695 72.1752 66.5007 71.7002 65.5507C71.2015 64.6007 70.5602 63.817 69.7765 63.2707L69.7767 63.2711ZM69.1117 72.4386C68.2092 73.4124 66.4517 73.9111 63.9105 73.9111H57.8068V82.0811H57.0468V63.8887H63.6732C64.9319 63.8887 65.9056 63.9599 66.5707 64.0787C67.4257 64.2212 68.1145 64.4824 68.6607 64.8624C69.1832 65.2187 69.6107 65.7412 69.9669 66.43C70.2994 67.1187 70.4894 67.9024 70.4894 68.7575C70.4894 70.2063 70.0382 71.4175 69.1119 72.4387L69.1117 72.4386Z" fill="white"/> <path d="M85.5 64.8366C84.6688 64.5041 83.4338 64.3616 81.7237 64.3616H76.5461V81.6041H81.7949C83.2199 81.6041 84.3361 81.4616 85.1912 81.1766C86.07 80.8916 86.8063 80.4641 87.3761 79.8941C88.1124 79.1578 88.6824 78.1603 89.0861 76.9729C89.4661 75.8091 89.6561 74.408 89.6561 72.7929C89.6561 70.5365 89.2524 68.7316 88.4924 67.4492C87.6849 66.1667 86.6636 65.2879 85.4999 64.8367L85.5 64.8366ZM87.2813 76.403C86.9725 77.3055 86.5688 78.0417 86.0463 78.5642C85.69 78.8967 85.215 79.1817 84.6213 79.3717C83.9563 79.5855 83.03 79.7042 81.7949 79.7042H78.4462V66.2618H81.6998C83.5048 66.2618 84.3835 66.4518 84.8111 66.618C85.5948 66.9268 86.2835 67.5443 86.8535 68.4943C87.4473 69.468 87.756 70.9406 87.756 72.8406C87.756 74.2181 87.5898 75.4294 87.281 76.403L87.2813 76.403Z" fill="white"/> <path d="M88.8961 63.9356C87.9699 63.1518 86.8536 62.6055 85.5473 62.2968C84.6686 62.083 83.4098 61.988 81.7473 61.988H73.8625V83.9803H82.0561C83.3624 83.9803 84.5025 83.8615 85.4998 83.6003C86.5448 83.339 87.4473 82.959 88.2073 82.4603C88.9674 81.9615 89.6561 81.2728 90.2736 80.394C90.8911 79.539 91.4136 78.4465 91.7936 77.1877C92.1736 75.9289 92.3636 74.4801 92.3636 72.8652C92.3636 70.989 92.0786 69.2552 91.5086 67.7589C90.9624 66.2152 90.0836 64.9326 88.8961 63.9352L88.8961 63.9356ZM90.0124 76.6419C89.6799 77.7106 89.2761 78.5894 88.7774 79.2782C88.3024 79.967 87.7561 80.4895 87.1861 80.8695C86.6161 81.2495 85.9274 81.5345 85.0961 81.7482C84.2411 81.962 83.2674 82.057 82.1037 82.057H75.81V63.8882H81.7949C83.2911 63.8882 84.4074 63.9832 85.1437 64.1494C86.1649 64.3869 86.9962 64.7907 87.6849 65.3844C88.6112 66.1682 89.3237 67.1894 89.7987 68.4244C90.2737 69.7069 90.5349 71.2032 90.5349 72.8657C90.4874 74.2907 90.3212 75.5732 90.0124 76.642L90.0124 76.6419Z" fill="white"/> <path d="M94.2878 83.98H98.8478V74.86H108.3V70.5849H98.8715V66.2624H109.773V61.9873H94.2878V83.98ZM96.1878 63.8875H107.849V64.3625H96.9478V72.485H106.4V72.96H96.9715V82.08H96.2115V63.8875H96.1878Z" fill="white"/> </svg>