<svg xmlns="http://www.w3.org/2000/svg" width="522" height="522" viewBox="0 0 522 522" fill="none"> <path d="M260.993 4.87109C148.547 4.87109 57.0703 96.3553 57.0703 208.802C57.0703 321.255 148.547 412.732 260.993 412.732C373.447 412.732 464.931 321.255 464.931 208.802C464.928 96.3553 373.44 4.87109 260.993 4.87109V4.87109ZM260.993 404.38C153.156 404.38 65.4223 316.639 65.4223 208.802C65.4223 100.964 153.148 13.2231 260.993 13.2231C368.839 13.2231 456.579 100.964 456.579 208.802C456.579 316.639 368.839 404.38 260.993 404.38Z" fill="#0C3051" fill-opacity="0.88"/> <path d="M380.382 90.1203C380.274 89.9863 380.225 89.8202 380.105 89.7037C379.989 89.5872 379.823 89.5289 379.689 89.427C349.22 59.1353 307.261 40.3672 261.001 40.3672C214.74 40.3672 172.79 59.1353 142.32 89.427C142.186 89.5348 142.02 89.5843 141.895 89.7095C141.77 89.8348 141.72 90.0008 141.613 90.1348C111.321 120.604 92.5527 162.553 92.5527 208.815C92.5527 255.076 111.321 297.033 141.613 327.503C141.712 327.637 141.77 327.794 141.889 327.92C142.006 328.045 142.172 328.094 142.306 328.196C172.775 358.497 214.724 377.256 260.986 377.256C307.256 377.256 349.204 358.488 379.674 328.196C379.817 328.089 379.965 328.039 380.091 327.92C380.216 327.803 380.265 327.643 380.367 327.503C410.659 297.034 429.427 255.085 429.427 208.815C429.442 162.54 410.682 120.59 380.382 90.1199L380.382 90.1203ZM393.243 212.977H420.88C419.82 253.95 403.324 291.09 376.956 318.853L357.462 299.359C355.834 297.731 353.186 297.731 351.558 299.359C349.93 300.988 349.93 303.636 351.558 305.264L371.052 324.758C343.289 351.125 306.148 367.619 265.175 368.682V341.044C265.175 338.74 263.305 336.867 260.998 336.867C258.694 336.867 256.821 338.737 256.821 341.044V368.682C215.847 367.622 178.715 351.125 150.944 324.758L170.438 305.264C172.066 303.636 172.066 300.988 170.438 299.359C168.81 297.731 166.162 297.731 164.533 299.359L145.04 318.853C118.672 291.09 102.184 253.95 101.124 212.977H128.761C131.066 212.977 132.939 211.107 132.939 208.8C132.939 206.495 131.069 204.622 128.761 204.622H101.124C102.184 163.649 118.671 126.516 145.04 98.7458L164.533 118.24C165.352 119.058 166.421 119.46 167.49 119.46C168.559 119.46 169.628 119.052 170.447 118.24C172.075 116.611 172.075 113.963 170.447 112.335L150.953 92.8412C178.722 66.4735 215.856 49.9858 256.829 48.9254V76.563C256.829 78.8671 258.699 80.7402 261.007 80.7402C263.311 80.7402 265.184 78.8701 265.184 76.563V48.9254C306.157 49.9857 343.297 66.4728 371.06 92.8412L351.567 112.335C349.938 113.963 349.938 116.611 351.567 118.24C352.385 119.058 353.454 119.46 354.523 119.46C355.592 119.46 356.661 119.052 357.48 118.24L376.973 98.7458C403.341 126.515 419.835 163.649 420.898 204.622H393.26C390.956 204.622 389.083 206.492 389.083 208.8C389.083 211.104 390.938 212.977 393.242 212.977H393.243Z" fill="#0C3051" fill-opacity="0.88"/> <path d="M278.839 223.633C282.203 219.59 284.318 214.454 284.318 208.792C284.318 197.367 276.042 187.886 265.174 185.907V103.968C265.174 101.664 263.304 99.791 260.997 99.791C258.693 99.791 256.82 101.661 256.82 103.968V185.907C245.955 187.879 237.676 197.367 237.676 208.792C237.676 221.652 248.133 232.118 260.994 232.118C265.137 232.118 268.979 230.933 272.351 229.037L315.606 268.265C316.407 268.99 317.409 269.351 318.411 269.351C319.547 269.351 320.674 268.882 321.502 267.982C323.054 266.278 322.92 263.63 321.219 262.087L278.839 223.633ZM246.033 208.792C246.033 200.54 252.748 193.833 261 193.833C269.252 193.833 275.966 200.539 275.966 208.792C275.966 217.044 269.252 223.767 261 223.767C252.748 223.767 246.033 217.044 246.033 208.792Z" fill="#0C3051" fill-opacity="0.88"/> </svg>