<svg xmlns="http://www.w3.org/2000/svg" width="480" height="379" viewBox="0 0 480 379" fill="none"> <path d="M264.527 276.516C263.869 276.516 263.251 276.31 262.714 275.931C262.21 275.56 261.765 275.24 261.386 275.015C259.945 274.151 259.459 272.257 260.316 270.805C260.872 269.867 261.89 269.282 262.982 269.282C263.519 269.282 264.052 269.426 264.527 269.705L264.567 269.727H264.578L264.589 269.738L266.266 270.705C267.336 271.323 267.936 272.529 267.781 273.765C267.627 274.99 266.763 276.008 265.568 276.35L265.373 276.402C265.093 276.475 264.814 276.516 264.527 276.516L264.527 276.516ZM391.507 202.44C390.963 202.44 390.415 202.297 389.94 202.006C389.867 201.966 389.797 201.926 389.723 201.874C389.631 201.834 389.547 201.782 389.466 201.738C387.991 200.885 387.487 198.998 388.344 197.516C388.675 196.95 389.157 196.509 389.756 196.24L401.227 176.808L388.161 154.144L325.618 45.8423L318.285 48.0267C317.255 48.3356 316.123 48.0671 315.332 47.3574C304.222 37.2954 294.47 32.6033 284.647 32.5703H284.607C277.667 32.5703 271.346 34.9496 264.395 37.8217C264.005 37.9872 263.623 38.1417 263.233 38.3071C256.981 40.8704 250.516 43.5292 243.206 43.5475C241.117 43.5475 239.047 43.3195 237.028 42.8672C226.153 40.4584 216.423 39.2412 208.116 39.2412H208.053C196.314 39.2412 189.85 41.6904 186.492 43.7423C182.528 46.2136 180.664 49.1077 180.612 52.8551C180.601 56.2236 182.363 60.0335 185.577 63.5751C186.72 64.8328 186.628 66.7966 185.36 67.9403C184.146 69.0435 182.094 68.9405 180.995 67.7233C176.721 62.9868 174.445 57.8383 174.434 52.8553C174.394 47.0891 177.615 41.8491 183.278 38.4693C189.188 34.8875 197.539 33.0745 208.116 33.0635C216.89 33.0635 227.062 34.3285 238.367 36.8439C239.963 37.1932 241.548 37.3697 243.206 37.3697H243.269C249.366 37.3697 255.523 34.8176 262.039 32.1183C268.567 29.4411 275.951 26.4036 284.652 26.3926H284.726C295.618 26.3926 306.566 31.3756 318.191 41.6098L326.193 39.2306C327.543 38.8297 329.054 39.4365 329.756 40.6427L407.498 175.286C408.053 176.242 408.042 177.437 407.476 178.397L394.182 200.918V200.929C393.619 201.863 392.597 202.44 391.508 202.44L391.507 202.44ZM373.178 191.864C372.641 191.864 372.108 191.721 371.634 191.442L256.111 124.77L250.407 121.464C249.201 120.754 248.616 119.323 248.977 117.985C249.348 116.635 250.573 115.697 251.963 115.697H251.974C254.805 115.719 257.711 115.749 260.52 115.789C264.165 115.83 267.945 115.881 271.63 115.881H271.733C280.559 115.881 291.948 115.624 301.811 113.667C311.758 111.7 319.212 108.272 324.629 103.186C328.891 99.1926 331.322 94.64 331.3 90.7162C331.248 86.9688 329.384 84.0637 325.42 81.5924C322.073 79.5441 315.608 77.0913 303.866 77.0913H303.796C295.496 77.0913 285.776 78.3049 274.902 80.7173C272.884 81.1696 270.824 81.3866 268.765 81.3866H268.735C261.414 81.3756 254.938 78.7205 248.686 76.1572C248.296 75.9917 247.902 75.8373 247.524 75.6718C240.562 72.7997 234.241 70.4204 227.29 70.4204H227.261C224.709 70.4204 222.227 70.7293 219.682 71.3692C218.056 71.7811 216.346 70.7514 215.945 69.1259C215.872 68.8685 215.842 68.6111 215.854 68.3537C215.854 66.9416 216.821 65.7169 218.192 65.3786C221.179 64.6284 224.238 64.257 227.265 64.257C235.955 64.257 243.357 67.2946 249.878 69.9607C256.394 72.6673 262.554 75.2121 268.658 75.2121H268.739C270.398 75.2121 271.972 75.0466 273.579 74.6972C284.876 72.1855 295.048 70.9168 303.801 70.9168C314.377 70.9279 322.735 72.7409 328.646 76.3227C334.309 79.6986 337.53 84.9501 337.479 90.7162C337.457 96.5229 334.471 102.392 328.859 107.684C322.556 113.582 314.113 117.528 303.014 119.72C292.677 121.768 281.35 122.048 271.631 122.059C268.81 122.059 266.048 122.029 263.691 121.996L374.732 186.094C376.203 186.94 376.711 188.834 375.854 190.316C375.306 191.268 374.276 191.864 373.177 191.864L373.178 191.864ZM200.539 79.5614C200.201 79.5614 199.859 79.5099 199.531 79.3959C198.748 79.1275 198.119 78.5722 197.759 77.8293C197.398 77.0864 197.347 76.2443 197.615 75.472C198.049 74.2254 199.222 73.3832 200.539 73.3832C200.877 73.3832 201.219 73.4457 201.539 73.5597C203.157 74.115 204.011 75.8765 203.455 77.4836C203.029 78.7266 201.856 79.5613 200.539 79.5613L200.539 79.5614Z" fill="#0C3051"/> <path d="M412.088 192.512C411.819 192.512 411.551 192.472 411.286 192.398C410.491 192.192 409.822 191.677 409.41 190.956L323.368 41.9377C322.968 41.239 322.854 40.3822 323.06 39.5915C323.265 38.8082 323.791 38.1279 324.501 37.716L389.188 0.411875C389.662 0.143417 390.188 0 390.732 0C391.835 0 392.854 0.588388 393.409 1.5445L450.229 99.9615C451.071 101.432 450.568 103.33 449.097 104.183C448.622 104.452 448.096 104.595 447.552 104.595C446.449 104.595 445.419 103.999 444.875 103.051L389.599 7.30727L330.27 41.5226L413.222 185.194L472.532 150.946L465.468 138.715C464.615 137.244 465.129 135.346 466.6 134.493C467.836 133.783 469.506 134.052 470.451 135.111C470.451 135.111 470.451 135.122 470.462 135.122C470.491 135.162 470.535 135.214 470.576 135.265C470.638 135.339 470.701 135.431 470.752 135.512L470.815 135.626L479.424 150.534C479.835 151.244 479.949 152.079 479.733 152.873C479.527 153.675 479.012 154.337 478.302 154.748L413.637 192.086C413.155 192.365 412.63 192.508 412.085 192.508L412.088 192.512ZM457.846 122.431C456.742 122.431 455.713 121.835 455.168 120.887C454.315 119.405 454.83 117.518 456.301 116.665C456.764 116.396 457.301 116.253 457.846 116.253C458.938 116.253 459.967 116.841 460.512 117.797C460.935 118.507 461.038 119.342 460.832 120.136C460.615 120.938 460.1 121.607 459.39 122.019C458.916 122.288 458.382 122.431 457.846 122.431H457.846Z" fill="#0C3051"/> <path d="M425.182 152.435L425.16 152.384V152.435C419.806 152.435 414.823 149.552 412.146 144.918C410.818 142.631 410.116 140.038 410.127 137.402C410.116 132.047 412.999 127.053 417.644 124.387C419.931 123.06 422.535 122.357 425.172 122.357H425.183C430.537 122.357 435.509 125.252 438.179 129.896C439.488 132.173 440.187 134.758 440.187 137.372C440.187 142.727 437.315 147.721 432.681 150.42C430.383 151.736 427.787 152.435 425.183 152.435L425.182 152.435ZM417.5 141.829C419.067 144.558 422.009 146.246 425.171 146.257C426.727 146.257 428.209 145.856 429.577 145.072C432.305 143.488 433.993 140.531 434.005 137.372C434.005 135.816 433.604 134.334 432.82 132.974C431.235 130.205 428.371 128.546 425.171 128.535C423.597 128.546 422.104 128.947 420.733 129.741C418.004 131.308 416.305 134.242 416.294 137.401C416.305 138.968 416.706 140.461 417.489 141.818C417.5 141.818 417.5 141.818 417.5 141.829V141.829Z" fill="#0C3051"/> <path d="M251.828 314.832H251.817C247.584 314.832 243.403 313.711 239.729 311.6L200.972 289.233C199.501 288.38 198.994 286.482 199.85 285.011C200.395 284.055 201.424 283.467 202.528 283.467C203.065 283.467 203.598 283.599 204.061 283.879L242.818 306.245C245.547 307.819 248.669 308.654 251.817 308.654C258.333 308.654 264.379 305.175 267.601 299.582C269.175 296.842 270.02 293.713 270.02 290.55C270.02 284.217 266.703 278.267 261.36 275.001C259.93 274.126 259.455 272.232 260.319 270.791C260.875 269.853 261.893 269.275 262.974 269.275C263.519 269.275 264.045 269.419 264.519 269.687L291.269 285.155C293.997 286.729 297.116 287.564 300.278 287.564C306.817 287.564 312.863 284.092 316.084 278.502C317.658 275.763 318.493 272.644 318.493 269.482C318.493 263.149 315.176 257.188 309.843 253.923C308.413 253.036 307.939 251.154 308.803 249.701C309.358 248.774 310.377 248.197 311.458 248.197C312.002 248.197 312.528 248.34 313.002 248.609L333.864 260.678C336.604 262.263 339.711 263.087 342.885 263.087C349.413 263.087 355.469 259.619 358.679 254.025C360.253 251.286 361.088 248.167 361.088 245.005C361.088 238.672 357.782 232.7 352.439 229.446C351.008 228.559 350.545 226.676 351.398 225.224C351.953 224.297 352.972 223.72 354.064 223.72C354.601 223.72 355.134 223.863 355.598 224.132L380.476 238.518C383.182 240.073 386.283 240.897 389.434 240.897C395.995 240.897 402.07 237.436 405.292 231.858C406.866 229.118 407.7 226.01 407.7 222.848C407.7 216.331 404.221 210.275 398.639 207.042L256.643 125.08C256.643 125.08 256.632 125.08 256.632 125.069L256.095 124.771L250.392 121.465C249.186 120.755 248.601 119.324 248.972 117.986C249.333 116.636 250.557 115.698 251.947 115.698H251.958C254.819 115.72 257.754 115.75 260.597 115.79C264.212 115.831 267.959 115.882 271.614 115.882H271.717C280.543 115.882 291.939 115.625 301.795 113.668C311.742 111.701 319.196 108.274 324.613 103.187C328.721 99.3261 331.152 94.9206 331.277 91.0995C331.347 89.3895 332.77 88.0509 334.48 88.1244C336.168 88.1869 337.477 89.5659 337.455 91.2539V91.3274C337.22 96.9503 334.241 102.603 328.846 107.7C322.543 113.598 314.092 117.533 303.001 119.725C292.653 121.773 281.327 122.053 271.618 122.053C268.797 122.053 266.028 122.03 263.678 122.001L300.357 143.172L401.73 201.699C409.225 206.045 413.88 214.147 413.88 222.848C413.88 227.092 412.769 231.273 410.637 234.957C406.301 242.434 398.178 247.078 389.447 247.078C385.203 247.078 381.033 245.968 377.388 243.864L366.033 237.296C366.856 239.801 367.279 242.393 367.268 245.008C367.279 249.252 366.158 253.44 364.036 257.117C359.711 264.612 351.606 269.268 342.898 269.268H342.868C338.636 269.268 334.443 268.157 330.78 266.035L323.44 261.791C324.264 264.285 324.676 266.866 324.676 269.485C324.676 273.728 323.565 277.917 321.443 281.594C317.108 289.089 309.006 293.744 300.294 293.744C296.043 293.744 291.862 292.634 288.185 290.512L274.964 282.87C275.788 285.352 276.2 287.937 276.2 290.552C276.2 294.796 275.078 298.996 272.945 302.673C268.62 310.168 260.53 314.831 251.825 314.831L251.828 314.832ZM184.685 279.349C184.148 279.349 183.615 279.205 183.152 278.926C181.67 278.08 181.166 276.186 182.019 274.704C182.563 273.755 183.593 273.16 184.696 273.16C185.233 273.16 185.766 273.303 186.23 273.583C186.951 273.994 187.465 274.664 187.671 275.458C187.888 276.252 187.774 277.084 187.362 277.797C186.814 278.753 185.785 279.349 184.685 279.349V279.349ZM166.85 269.051C166.313 269.051 165.78 268.908 165.305 268.629L120.587 242.813C120.124 242.533 119.742 242.165 119.466 241.702L104.461 216.228C103.895 215.261 103.895 214.077 104.45 213.109L182.17 78.4852C182.869 77.279 184.373 76.6832 185.711 77.0841L193.721 79.4633C205.346 69.2291 216.293 64.2461 227.174 64.2461H227.255C235.934 64.2571 243.341 67.2947 249.868 69.9719C256.385 72.6711 262.533 75.2232 268.649 75.2232H268.719C270.366 75.2232 271.951 75.0467 273.569 74.6974C283.94 72.3916 293.38 71.1339 301.629 70.939C303.298 70.8875 304.747 72.2666 304.791 73.9545C304.821 75.6645 303.475 77.073 301.776 77.1171C293.921 77.301 284.878 78.5183 274.901 80.732C272.871 81.1733 270.793 81.4013 268.723 81.4013C261.39 81.3793 254.925 78.7241 248.666 76.1499C248.283 75.9955 247.904 75.841 247.511 75.6866C240.56 72.8035 234.239 70.4242 227.289 70.4242H227.26C217.437 70.4536 207.684 75.1497 196.564 85.2112C195.781 85.932 194.637 86.1894 193.608 85.8805L186.275 83.6961L110.696 214.639L124.368 237.859L168.388 263.281C169.344 263.825 169.943 264.855 169.932 265.958C169.932 266.495 169.789 267.028 169.52 267.503C168.983 268.448 167.954 269.044 166.85 269.044L166.85 269.051ZM322.025 79.7113C321.676 79.7113 321.323 79.6488 320.996 79.5348H320.985C320.212 79.2553 319.584 78.689 319.234 77.9498C318.874 77.207 318.833 76.3648 319.109 75.5926C319.543 74.357 320.716 73.5332 322.011 73.5332C322.371 73.5332 322.713 73.5957 323.051 73.7097C323.051 73.7097 323.062 73.7097 323.062 73.7208C323.835 73.9892 324.453 74.5555 324.802 75.2947C325.162 76.0376 325.203 76.8687 324.927 77.652C324.497 78.8766 323.324 79.7114 322.025 79.7114V79.7113Z" fill="#0C3051"/> <path d="M99.862 230.329C99.3177 230.329 98.7808 230.186 98.3065 229.917L33.6529 192.602C32.9321 192.19 32.4283 191.532 32.2114 190.726C31.9944 189.932 32.1084 189.101 32.5203 188.388L41.1072 173.498C41.6624 172.542 42.6811 171.953 43.7844 171.953C44.3286 171.953 44.8655 172.097 45.3289 172.365C46.285 172.921 46.8734 173.939 46.8734 175.054C46.8734 175.59 46.73 176.113 46.4615 176.587L39.4082 188.8L98.7182 223.016L181.649 79.3723L122.339 45.1241L67.0551 140.914C66.4998 141.863 65.4811 142.459 64.3779 142.459C63.8336 142.459 63.2967 142.316 62.8333 142.036C61.3624 141.19 60.8475 139.296 61.7007 137.814L118.528 39.3503C118.94 38.6516 119.62 38.1257 120.411 37.9088C121.183 37.7028 122.048 37.8168 122.75 38.2287L187.415 75.5545C188.125 75.9663 188.639 76.6356 188.856 77.4373C189.062 78.2316 188.959 79.0628 188.547 79.7762L102.528 228.776C102.127 229.475 101.436 230.001 100.653 230.218C100.399 230.288 100.13 230.328 99.8619 230.328L99.862 230.329ZM54.085 160.299C53.5407 160.299 53.0149 160.156 52.5405 159.887C51.8308 159.475 51.3159 158.806 51.099 158.012C50.893 157.21 50.996 156.375 51.4079 155.666C51.9632 154.709 52.9819 154.121 54.0851 154.121C54.6294 154.121 55.1553 154.265 55.6296 154.533C57.1006 155.379 57.6081 157.273 56.7623 158.755C56.2033 159.703 55.1846 160.299 54.085 160.299H54.085Z" fill="#0C3051"/> <path d="M86.7678 190.28H86.7568C84.131 190.28 81.5458 189.581 79.2622 188.272C74.6175 185.573 71.7234 180.579 71.7344 175.225C71.7344 172.599 72.4258 170.014 73.7423 167.737C76.4195 163.104 81.4134 160.221 86.7453 160.221H86.7857C89.4004 160.221 92.0078 160.912 94.2915 162.24C98.9251 164.917 101.797 169.9 101.797 175.265C101.797 177.88 101.106 180.476 99.8003 182.76C99.7893 182.76 99.7893 182.76 99.7893 182.771C97.1047 187.408 92.1108 190.28 86.7675 190.28L86.7678 190.28ZM86.7678 166.391C83.5648 166.402 80.6927 168.061 79.0856 170.83C78.3133 172.19 77.9124 173.661 77.9124 175.228C77.9124 178.391 79.6225 181.333 82.3511 182.921C83.7117 183.705 85.1937 184.105 86.7567 184.105C89.9083 184.094 92.854 182.417 94.4278 179.707L94.4389 179.696C95.2222 178.328 95.623 176.835 95.623 175.268C95.612 172.054 93.9645 169.182 91.2064 167.597C89.8347 166.803 88.3416 166.402 86.7677 166.391L86.7678 166.391Z" fill="#0C3051"/> <path d="M459.441 359.276H141.407C139.697 359.276 138.318 357.897 138.318 356.187C138.318 354.488 139.697 353.098 141.407 353.098H459.45C461.149 353.098 462.539 354.488 462.539 356.187C462.536 357.897 461.145 359.276 459.446 359.276H459.441Z" fill="#0C3051"/> <path d="M273.208 378.623H53.13C51.42 378.623 50.041 377.233 50.041 375.534C50.041 373.835 51.42 372.445 53.13 372.445H273.208C274.918 372.445 276.297 373.835 276.297 375.534C276.297 377.233 274.918 378.623 273.208 378.623Z" fill="#0C3051"/> <path d="M30.6107 378.623H3.08901C1.39002 378.623 0 377.233 0 375.534C0 373.835 1.39011 372.445 3.08901 372.445H30.6107C32.3097 372.445 33.6998 373.835 33.6998 375.534C33.6998 377.233 32.3096 378.623 30.6107 378.623V378.623Z" fill="#0C3051"/> <path d="M471.971 378.02H367.689C365.99 378.02 364.6 376.641 364.6 374.931C364.6 373.232 365.99 371.842 367.689 371.842H471.971C473.67 371.842 475.06 373.232 475.06 374.931C475.06 376.637 473.67 378.02 471.971 378.02Z" fill="#0C3051"/> <path d="M166.844 297.792C166.307 297.792 165.774 297.649 165.311 297.38L102.654 261.205C101.944 260.793 101.429 260.124 101.212 259.333L98.4838 249.117L59.407 226.555C57.925 225.709 57.4211 223.816 58.2743 222.334C58.8186 221.385 59.8483 220.789 60.9516 220.789C61.4885 220.789 62.0217 220.932 62.4961 221.201L102.676 244.409C103.375 244.81 103.901 245.49 104.118 246.285L106.857 256.49L168.403 292.025C168.403 292.025 168.403 292.036 168.414 292.036C169.113 292.448 169.628 293.106 169.834 293.9C170.051 294.702 169.948 295.537 169.536 296.247C168.977 297.195 167.947 297.791 166.844 297.791L166.844 297.792Z" fill="#0C3051"/> </svg>