<svg xmlns="http://www.w3.org/2000/svg" width="434" height="643" viewBox="0 0 434 643" fill="none"> <path d="M216.667 0.26532C98.4213 0.26532 2.26667 96.9733 0.133333 216.572C0.102084 218.551 0.857286 220.463 2.23746 221.885C3.61239 223.306 5.50305 224.124 7.48225 224.155C9.46145 224.187 11.3729 223.431 12.7948 222.051C14.2167 220.671 15.0344 218.786 15.0656 216.806C17.0552 105.052 106.566 15.2064 216.666 15.2064C328.026 15.2064 418.266 106.785 418.266 220.313C418.266 273.949 392.162 328.177 354.334 372.913V373.147C313.844 423.579 250.574 509.534 216.667 613.241C182.76 509.527 119.49 423.574 79.0003 373.147V372.913C50.4789 339.184 28.4843 300.142 19.5003 259.981C19.2763 257.856 18.1617 255.929 16.4273 254.689C14.6929 253.445 12.5107 253.002 10.4273 253.471C8.34919 253.939 6.56799 255.278 5.53665 257.148C4.5054 259.012 4.32311 261.236 5.03145 263.247C14.6773 306.356 37.8701 347.085 67.5674 382.247V382.481H67.3331C110.082 435.732 178.713 527.401 209.426 636.814C210.275 640.116 213.249 642.424 216.661 642.424C220.072 642.424 223.046 640.116 223.895 636.814C254.614 527.402 323.245 435.734 365.989 382.481H365.754C365.796 382.403 365.713 382.288 365.754 382.247C405.161 335.596 433.186 278.695 433.186 220.313C433.186 98.8546 336.228 0.273239 216.653 0.273239L216.667 0.26532ZM216.667 97.3333C146.651 97.3333 89.7347 154.251 89.7347 224.265C89.7347 294.28 146.652 351.197 216.667 351.197C286.681 351.197 343.599 294.28 343.599 224.265C343.599 154.251 286.681 97.3333 216.667 97.3333V97.3333ZM216.667 112.265C278.609 112.265 328.667 162.323 328.667 224.265C328.667 286.213 278.609 336.265 216.667 336.265C154.724 336.265 104.667 286.213 104.667 224.265C104.667 162.323 154.724 112.265 216.667 112.265V112.265Z" fill="#1E3B43"/> </svg>