<svg xmlns="http://www.w3.org/2000/svg" width="67" height="67" viewBox="0 0 67 67" fill="none"> <path d="M52.7625 18.2575C52.7625 17.822 52.729 17.42 52.6955 16.9845C52.059 11.189 47.168 6.80049 41.339 6.83399H17.0515V28.9775C12.663 32.361 11.8925 38.659 15.276 43.014C15.41 43.1815 15.5105 43.3155 15.6445 43.483V59.3285C15.6445 59.6635 15.9125 59.898 16.214 59.898C16.3815 59.898 16.5155 59.831 16.6495 59.7305L23.45 52.4945L30.1165 59.697C30.351 59.9315 30.7195 59.9315 30.954 59.7305C31.088 59.63 31.155 59.4625 31.155 59.295V51.6235H52.796L52.7625 18.2575ZM51.456 16.482H40.736C40.736 13.668 40.736 10.8205 40.736 8.00649H41.339C46.3305 8.00649 50.585 11.5575 51.456 16.482ZM23.182 28.0395C28.073 28.006 32.026 32.0595 32.026 36.8835C32.026 41.741 28.006 45.761 23.182 45.7275C18.4585 45.694 14.5055 41.808 14.405 36.984C14.338 32.1265 18.3245 28.0395 23.182 28.0395ZM29.9825 57.821L23.8855 51.255C23.785 51.121 23.6175 51.054 23.45 51.054C23.2825 51.054 23.1485 51.121 23.0145 51.2215L16.7835 57.821V44.5885C17.4535 45.1245 19.7985 46.8665 23.249 46.833C26.934 46.7995 29.346 44.7895 29.949 44.2535C29.9825 48.776 29.9825 53.2985 29.9825 57.821ZM51.59 50.4845H31.1215V43.1145C31.1215 43.081 31.1215 43.0475 31.1215 43.014C32.3945 41.3725 33.098 39.396 33.1985 37.3525H45.761V36.18H33.1985C33.0645 34.036 32.227 32.026 30.82 30.3845H45.761V29.212H29.6475C26.4315 26.4985 21.8755 26.0965 18.224 28.1735V8.00649H39.5635V17.6545H51.59C51.59 17.8555 51.6235 18.0565 51.6235 18.291L51.59 50.4845Z" fill="white" fill-opacity="0.81"/> <path d="M45.761 22.512H26.465V23.6845H45.761V22.512Z" fill="white" fill-opacity="0.81"/> <path d="M36.113 14.807H26.465V15.9795H36.113V14.807Z" fill="white" fill-opacity="0.81"/> </svg>